<svg width="428" height="428" viewBox="0 0 428 428" fill="none" xmlns="http://www.w3.org/2000/svg">
<g filter="url(#filter0_d_1_2)">
<rect x="14" y="10" width="400" height="400" rx="20" fill="black"/>
<rect x="14" y="10" width="400" height="400" rx="20" stroke="#A3AFD5" stroke-width="20"/>
</g>
<g filter="url(#filter1_g_1_2)">
<path fill-rule="evenodd" clip-rule="evenodd" d="M326.5 320C302.325 332.456 263.415 331.183 251 302.5C246.523 292.156 246.635 285.459 244 274.5C232.829 228.035 235.379 182.992 172 183.5C127.541 183.856 88.8702 237.383 60.5687 269.427C59.2454 270.925 56.8694 269.749 57.2526 267.787C67.5614 215.007 92.5559 142.372 142 113.5C281.997 31.753 428.894 267.242 326.5 320Z" fill="#6E4DA3"/>
<path fill-rule="evenodd" clip-rule="evenodd" d="M326.5 320C302.325 332.456 263.415 331.183 251 302.5C246.523 292.156 246.635 285.459 244 274.5C232.829 228.035 235.379 182.992 172 183.5C127.541 183.856 88.8702 237.383 60.5687 269.427C59.2454 270.925 56.8694 269.749 57.2526 267.787C67.5614 215.007 92.5559 142.372 142 113.5C281.997 31.753 428.894 267.242 326.5 320Z" stroke="black"/>
</g>
<path d="M81.2784 230.568C79.5265 230.568 78.0232 229.941 76.7685 228.686C75.5137 227.431 74.8864 225.928 74.8864 224.176C74.8864 222.424 75.5137 220.921 76.7685 219.666C78.0232 218.411 79.5265 217.784 81.2784 217.784C83.0303 217.784 84.5336 218.411 85.7884 219.666C87.0431 220.921 87.6705 222.424 87.6705 224.176C87.6705 225.336 87.3745 226.402 86.7827 227.372C86.2145 228.343 85.4451 229.124 84.4744 229.716C83.5275 230.284 82.4621 230.568 81.2784 230.568Z" fill="white"/>
<path d="M134.42 182.915V190.727H102.602V182.915H134.42Z" fill="white"/>
<path d="M142.341 133.58L149.727 143.523L157.114 133.58H165.068V134.148L153.562 148.92H145.892L134.386 134.148V133.58H142.341Z" fill="white"/>
<path d="M193.92 115.455L206.989 137.756L220.057 115.455H229.716L212.102 142.727L229.716 170H220.057L206.989 148.835L193.92 170H184.261L201.591 142.727L184.261 115.455H193.92Z" fill="white"/>
<path d="M275.801 218L287.733 145.273H294.835L282.903 218H275.801ZM242.705 197.83L243.841 190.727H298.102L296.966 197.83H242.705ZM250.233 218L262.165 145.273H269.267L257.335 218H250.233ZM246.966 172.545L248.102 165.443H302.364L301.227 172.545H246.966Z" fill="white"/>
<mask id="path-8-outside-1_1_2" maskUnits="userSpaceOnUse" x="254.5" y="219" width="87" height="93" fill="black">
<rect fill="white" x="254.5" y="219" width="87" height="93"/>
<path d="M301.074 310.176C293.83 310.176 287.426 309.182 281.862 307.193C276.299 305.228 271.623 302.328 267.835 298.493C264.047 294.658 261.183 289.958 259.241 284.395C257.3 278.831 256.33 272.463 256.33 265.29C256.33 258.353 257.312 252.151 259.277 246.682C261.266 241.213 264.142 236.573 267.906 232.761C271.694 228.926 276.287 226.002 281.685 223.99C287.106 221.978 293.238 220.972 300.08 220.972C306.732 220.972 312.556 222.061 317.551 224.239C322.57 226.393 326.76 229.317 330.122 233.01C333.508 236.679 336.041 240.811 337.722 245.403C339.426 249.996 340.278 254.731 340.278 259.608C340.278 263.041 340.113 266.521 339.781 270.048C339.45 273.576 338.751 276.819 337.686 279.778C336.621 282.714 334.975 285.081 332.75 286.881C330.548 288.68 327.565 289.58 323.801 289.58C322.144 289.58 320.321 289.319 318.332 288.798C316.344 288.277 314.58 287.413 313.041 286.206C311.502 284.999 310.591 283.377 310.307 281.341H309.881C309.313 282.714 308.437 284.016 307.253 285.247C306.093 286.478 304.566 287.461 302.672 288.195C300.802 288.929 298.517 289.248 295.818 289.153C292.741 289.035 290.03 288.348 287.686 287.094C285.342 285.815 283.377 284.087 281.791 281.909C280.229 279.707 279.045 277.162 278.24 274.274C277.459 271.362 277.068 268.225 277.068 264.864C277.068 261.668 277.542 258.744 278.489 256.092C279.436 253.441 280.75 251.121 282.43 249.132C284.135 247.143 286.124 245.557 288.396 244.374C290.693 243.166 293.167 242.42 295.818 242.136C298.186 241.9 300.34 242.006 302.281 242.456C304.223 242.882 305.821 243.533 307.075 244.409C308.33 245.261 309.123 246.208 309.455 247.25H309.881V243.273H317.409V275.375C317.409 277.364 317.965 279.116 319.078 280.631C320.191 282.146 321.813 282.903 323.943 282.903C326.358 282.903 328.205 282.075 329.483 280.418C330.785 278.76 331.673 276.204 332.146 272.747C332.643 269.291 332.892 264.864 332.892 259.466C332.892 256.294 332.454 253.169 331.578 250.091C330.726 246.99 329.424 244.089 327.672 241.391C325.944 238.692 323.754 236.312 321.102 234.253C318.451 232.193 315.338 230.583 311.763 229.423C308.212 228.24 304.175 227.648 299.653 227.648C294.09 227.648 289.107 228.512 284.703 230.24C280.323 231.945 276.595 234.442 273.517 237.733C270.463 241 268.131 244.977 266.521 249.665C264.935 254.329 264.142 259.632 264.142 265.574C264.142 271.611 264.935 276.973 266.521 281.661C268.131 286.348 270.499 290.302 273.624 293.521C276.772 296.741 280.667 299.179 285.307 300.837C289.947 302.518 295.297 303.358 301.358 303.358C303.962 303.358 306.531 303.109 309.064 302.612C311.597 302.115 313.834 301.571 315.776 300.979C317.717 300.387 319.114 299.949 319.966 299.665L321.955 306.199C320.487 306.814 318.569 307.43 316.202 308.045C313.858 308.661 311.348 309.17 308.673 309.572C306.022 309.975 303.489 310.176 301.074 310.176ZM296.955 281.909C300.127 281.909 302.696 281.27 304.661 279.991C306.625 278.713 308.058 276.784 308.957 274.203C309.857 271.623 310.307 268.367 310.307 264.438C310.307 260.46 309.81 257.359 308.815 255.134C307.821 252.908 306.353 251.346 304.412 250.446C302.471 249.546 300.08 249.097 297.239 249.097C294.54 249.097 292.232 249.807 290.314 251.227C288.42 252.624 286.964 254.494 285.946 256.838C284.952 259.158 284.455 261.691 284.455 264.438C284.455 267.468 284.857 270.321 285.662 272.996C286.467 275.647 287.781 277.802 289.604 279.459C291.427 281.092 293.877 281.909 296.955 281.909Z"/>
</mask>
<path d="M301.074 310.176C293.83 310.176 287.426 309.182 281.862 307.193C276.299 305.228 271.623 302.328 267.835 298.493C264.047 294.658 261.183 289.958 259.241 284.395C257.3 278.831 256.33 272.463 256.33 265.29C256.33 258.353 257.312 252.151 259.277 246.682C261.266 241.213 264.142 236.573 267.906 232.761C271.694 228.926 276.287 226.002 281.685 223.99C287.106 221.978 293.238 220.972 300.08 220.972C306.732 220.972 312.556 222.061 317.551 224.239C322.57 226.393 326.76 229.317 330.122 233.01C333.508 236.679 336.041 240.811 337.722 245.403C339.426 249.996 340.278 254.731 340.278 259.608C340.278 263.041 340.113 266.521 339.781 270.048C339.45 273.576 338.751 276.819 337.686 279.778C336.621 282.714 334.975 285.081 332.75 286.881C330.548 288.68 327.565 289.58 323.801 289.58C322.144 289.58 320.321 289.319 318.332 288.798C316.344 288.277 314.58 287.413 313.041 286.206C311.502 284.999 310.591 283.377 310.307 281.341H309.881C309.313 282.714 308.437 284.016 307.253 285.247C306.093 286.478 304.566 287.461 302.672 288.195C300.802 288.929 298.517 289.248 295.818 289.153C292.741 289.035 290.03 288.348 287.686 287.094C285.342 285.815 283.377 284.087 281.791 281.909C280.229 279.707 279.045 277.162 278.24 274.274C277.459 271.362 277.068 268.225 277.068 264.864C277.068 261.668 277.542 258.744 278.489 256.092C279.436 253.441 280.75 251.121 282.43 249.132C284.135 247.143 286.124 245.557 288.396 244.374C290.693 243.166 293.167 242.42 295.818 242.136C298.186 241.9 300.34 242.006 302.281 242.456C304.223 242.882 305.821 243.533 307.075 244.409C308.33 245.261 309.123 246.208 309.455 247.25H309.881V243.273H317.409V275.375C317.409 277.364 317.965 279.116 319.078 280.631C320.191 282.146 321.813 282.903 323.943 282.903C326.358 282.903 328.205 282.075 329.483 280.418C330.785 278.76 331.673 276.204 332.146 272.747C332.643 269.291 332.892 264.864 332.892 259.466C332.892 256.294 332.454 253.169 331.578 250.091C330.726 246.99 329.424 244.089 327.672 241.391C325.944 238.692 323.754 236.312 321.102 234.253C318.451 232.193 315.338 230.583 311.763 229.423C308.212 228.24 304.175 227.648 299.653 227.648C294.09 227.648 289.107 228.512 284.703 230.24C280.323 231.945 276.595 234.442 273.517 237.733C270.463 241 268.131 244.977 266.521 249.665C264.935 254.329 264.142 259.632 264.142 265.574C264.142 271.611 264.935 276.973 266.521 281.661C268.131 286.348 270.499 290.302 273.624 293.521C276.772 296.741 280.667 299.179 285.307 300.837C289.947 302.518 295.297 303.358 301.358 303.358C303.962 303.358 306.531 303.109 309.064 302.612C311.597 302.115 313.834 301.571 315.776 300.979C317.717 300.387 319.114 299.949 319.966 299.665L321.955 306.199C320.487 306.814 318.569 307.43 316.202 308.045C313.858 308.661 311.348 309.17 308.673 309.572C306.022 309.975 303.489 310.176 301.074 310.176ZM296.955 281.909C300.127 281.909 302.696 281.27 304.661 279.991C306.625 278.713 308.058 276.784 308.957 274.203C309.857 271.623 310.307 268.367 310.307 264.438C310.307 260.46 309.81 257.359 308.815 255.134C307.821 252.908 306.353 251.346 304.412 250.446C302.471 249.546 300.08 249.097 297.239 249.097C294.54 249.097 292.232 249.807 290.314 251.227C288.42 252.624 286.964 254.494 285.946 256.838C284.952 259.158 284.455 261.691 284.455 264.438C284.455 267.468 284.857 270.321 285.662 272.996C286.467 275.647 287.781 277.802 289.604 279.459C291.427 281.092 293.877 281.909 296.955 281.909Z" fill="white"/>
<path d="M281.862 307.193L282.199 306.252L282.195 306.25L281.862 307.193ZM267.835 298.493L268.547 297.79V297.79L267.835 298.493ZM259.241 284.395L258.297 284.724V284.724L259.241 284.395ZM259.277 246.682L258.337 246.34L258.336 246.344L259.277 246.682ZM267.906 232.761L267.195 232.059L267.195 232.059L267.906 232.761ZM281.685 223.99L281.337 223.053L281.335 223.053L281.685 223.99ZM317.551 224.239L317.151 225.155L317.157 225.158L317.551 224.239ZM330.122 233.01L329.383 233.683L329.387 233.688L330.122 233.01ZM337.722 245.403L336.783 245.747L336.784 245.751L337.722 245.403ZM339.781 270.048L338.786 269.955V269.955L339.781 270.048ZM337.686 279.778L338.626 280.12L338.627 280.117L337.686 279.778ZM332.75 286.881L332.121 286.103L332.117 286.106L332.75 286.881ZM318.332 288.798L318.586 287.831V287.831L318.332 288.798ZM313.041 286.206L312.424 286.993L313.041 286.206ZM310.307 281.341L311.297 281.203L311.177 280.341H310.307V281.341ZM309.881 281.341V280.341H309.212L308.957 280.959L309.881 281.341ZM307.253 285.247L306.532 284.554L306.525 284.561L307.253 285.247ZM302.672 288.195L302.311 287.262L302.307 287.264L302.672 288.195ZM295.818 289.153L295.78 290.153L295.783 290.153L295.818 289.153ZM287.686 287.094L287.207 287.972L287.214 287.975L287.686 287.094ZM281.791 281.909L280.976 282.488L280.983 282.498L281.791 281.909ZM278.24 274.274L277.274 274.533L277.277 274.543L278.24 274.274ZM278.489 256.092L279.43 256.429V256.429L278.489 256.092ZM282.43 249.132L281.671 248.481L281.667 248.487L282.43 249.132ZM288.396 244.374L288.858 245.26L288.862 245.259L288.396 244.374ZM295.818 242.136L295.719 241.141L295.712 241.142L295.818 242.136ZM302.281 242.456L302.056 243.43L302.067 243.433L302.281 242.456ZM307.075 244.409L306.503 245.229L306.513 245.236L307.075 244.409ZM309.455 247.25L308.502 247.553L308.723 248.25H309.455V247.25ZM309.881 247.25V248.25H310.881V247.25H309.881ZM309.881 243.273V242.273H308.881V243.273H309.881ZM317.409 243.273H318.409V242.273H317.409V243.273ZM319.078 280.631L318.272 281.223V281.223L319.078 280.631ZM329.483 280.418L328.697 279.8L328.691 279.807L329.483 280.418ZM332.146 272.747L331.156 272.605L331.156 272.611L332.146 272.747ZM331.578 250.091L330.614 250.356L330.616 250.365L331.578 250.091ZM327.672 241.391L326.83 241.93L326.833 241.935L327.672 241.391ZM311.763 229.423L311.447 230.372L311.454 230.374L311.763 229.423ZM284.703 230.24L285.066 231.172L285.068 231.171L284.703 230.24ZM273.517 237.733L272.787 237.05L272.787 237.05L273.517 237.733ZM266.521 249.665L265.576 249.34L265.575 249.343L266.521 249.665ZM266.521 281.661L265.574 281.981L265.576 281.985L266.521 281.661ZM273.624 293.521L272.906 294.218L272.909 294.22L273.624 293.521ZM285.307 300.837L285.647 299.896L285.643 299.895L285.307 300.837ZM309.064 302.612L309.257 303.593V303.593L309.064 302.612ZM315.776 300.979L316.067 301.935V301.935L315.776 300.979ZM319.966 299.665L320.923 299.374L320.624 298.391L319.65 298.716L319.966 299.665ZM321.955 306.199L322.341 307.121L323.174 306.772L322.911 305.908L321.955 306.199ZM316.202 308.045L315.95 307.078L315.948 307.078L316.202 308.045ZM308.673 309.572L308.525 308.584L308.523 308.584L308.673 309.572ZM308.957 274.203L309.902 274.532V274.532L308.957 274.203ZM308.815 255.134L309.728 254.726V254.726L308.815 255.134ZM290.314 251.227L290.907 252.032L290.909 252.031L290.314 251.227ZM285.946 256.838L285.029 256.44L285.027 256.444L285.946 256.838ZM285.662 272.996L284.704 273.284L284.705 273.286L285.662 272.996ZM289.604 279.459L288.931 280.199L288.936 280.204L289.604 279.459ZM301.074 310.176V309.176C293.919 309.176 287.633 308.194 282.199 306.252L281.862 307.193L281.526 308.135C287.218 310.17 293.74 311.176 301.074 311.176V310.176ZM281.862 307.193L282.195 306.25C276.761 304.331 272.218 301.508 268.547 297.79L267.835 298.493L267.124 299.196C271.028 303.148 275.837 306.126 281.529 308.136L281.862 307.193ZM267.835 298.493L268.547 297.79C264.873 294.07 262.083 289.502 260.186 284.065L259.241 284.395L258.297 284.724C260.283 290.415 263.222 295.245 267.124 299.196L267.835 298.493ZM259.241 284.395L260.186 284.065C258.288 278.628 257.33 272.374 257.33 265.29H256.33H255.33C255.33 272.552 256.312 279.035 258.297 284.724L259.241 284.395ZM256.33 265.29H257.33C257.33 258.447 258.299 252.362 260.218 247.02L259.277 246.682L258.336 246.344C256.325 251.94 255.33 258.26 255.33 265.29H256.33ZM259.277 246.682L260.217 247.024C262.161 241.678 264.963 237.165 268.618 233.464L267.906 232.761L267.195 232.059C263.321 235.981 260.371 240.748 258.337 246.34L259.277 246.682ZM267.906 232.761L268.618 233.464C272.296 229.739 276.763 226.892 282.034 224.927L281.685 223.99L281.335 223.053C275.811 225.113 271.092 228.113 267.195 232.059L267.906 232.761ZM281.685 223.99L282.033 224.928C287.324 222.963 293.335 221.972 300.08 221.972V220.972V219.972C293.14 219.972 286.888 220.992 281.337 223.053L281.685 223.99ZM300.08 220.972V221.972C306.624 221.972 312.307 223.043 317.151 225.155L317.551 224.239L317.951 223.322C312.805 221.078 306.84 219.972 300.08 219.972V220.972ZM317.551 224.239L317.157 225.158C322.057 227.261 326.126 230.105 329.383 233.683L330.122 233.01L330.862 232.337C327.395 228.528 323.083 225.525 317.946 223.32L317.551 224.239ZM330.122 233.01L329.387 233.688C332.685 237.263 335.148 241.281 336.783 245.747L337.722 245.403L338.661 245.06C336.934 240.34 334.33 236.096 330.857 232.332L330.122 233.01ZM337.722 245.403L336.784 245.751C338.447 250.233 339.278 254.85 339.278 259.608H340.278H341.278C341.278 254.612 340.405 249.759 338.659 245.055L337.722 245.403ZM340.278 259.608H339.278C339.278 263.008 339.114 266.457 338.786 269.955L339.781 270.048L340.777 270.142C341.111 266.584 341.278 263.073 341.278 259.608H340.278ZM339.781 270.048L338.786 269.955C338.461 273.409 337.779 276.569 336.745 279.44L337.686 279.778L338.627 280.117C339.724 277.07 340.439 273.743 340.777 270.142L339.781 270.048ZM337.686 279.778L336.746 279.437C335.737 282.218 334.192 284.429 332.121 286.103L332.75 286.881L333.379 287.658C335.758 285.734 337.505 283.21 338.626 280.12L337.686 279.778ZM332.75 286.881L332.117 286.106C330.145 287.718 327.41 288.58 323.801 288.58V289.58V290.58C327.721 290.58 330.952 289.642 333.383 287.655L332.75 286.881ZM323.801 289.58V288.58C322.247 288.58 320.511 288.335 318.586 287.831L318.332 288.798L318.079 289.766C320.131 290.303 322.041 290.58 323.801 290.58V289.58ZM318.332 288.798L318.586 287.831C316.723 287.343 315.084 286.538 313.658 285.419L313.041 286.206L312.424 286.993C314.076 288.289 315.965 289.212 318.079 289.766L318.332 288.798ZM313.041 286.206L313.658 285.419C312.334 284.38 311.548 282.997 311.297 281.203L310.307 281.341L309.316 281.479C309.634 283.757 310.67 285.617 312.424 286.993L313.041 286.206ZM310.307 281.341V280.341H309.881V281.341V282.341H310.307V281.341ZM309.881 281.341L308.957 280.959C308.443 282.2 307.642 283.4 306.532 284.554L307.253 285.247L307.974 285.94C309.231 284.632 310.182 283.228 310.805 281.723L309.881 281.341ZM307.253 285.247L306.525 284.561C305.486 285.664 304.093 286.571 302.311 287.262L302.672 288.195L303.033 289.127C305.039 288.35 306.7 287.292 307.981 285.933L307.253 285.247ZM302.672 288.195L302.307 287.264C300.599 287.934 298.46 288.245 295.853 288.154L295.818 289.153L295.783 290.153C298.574 290.251 301.004 289.923 303.037 289.125L302.672 288.195ZM295.818 289.153L295.857 288.154C292.907 288.041 290.348 287.385 288.158 286.212L287.686 287.094L287.214 287.975C289.711 289.312 292.575 290.029 295.78 290.153L295.818 289.153ZM287.686 287.094L288.165 286.216C285.952 285.009 284.099 283.38 282.6 281.32L281.791 281.909L280.983 282.498C282.655 284.794 284.732 286.622 287.207 287.972L287.686 287.094ZM281.791 281.909L282.607 281.33C281.118 279.233 279.981 276.795 279.203 274.006L278.24 274.274L277.277 274.543C278.109 277.53 279.339 280.182 280.976 282.488L281.791 281.909ZM278.24 274.274L279.206 274.015C278.45 271.197 278.068 268.148 278.068 264.864H277.068H276.068C276.068 268.303 276.468 271.528 277.274 274.533L278.24 274.274ZM277.068 264.864H278.068C278.068 261.767 278.527 258.959 279.43 256.429L278.489 256.092L277.547 255.756C276.557 258.529 276.068 261.568 276.068 264.864H277.068ZM278.489 256.092L279.43 256.429C280.34 253.881 281.597 251.668 283.194 249.778L282.43 249.132L281.667 248.487C279.902 250.574 278.531 253.001 277.547 255.756L278.489 256.092ZM282.43 249.132L283.19 249.783C284.813 247.889 286.701 246.384 288.858 245.26L288.396 244.374L287.934 243.487C285.546 244.731 283.457 246.398 281.671 248.481L282.43 249.132ZM288.396 244.374L288.862 245.259C291.043 244.112 293.395 243.402 295.925 243.131L295.818 242.136L295.712 241.142C292.938 241.439 290.342 242.221 287.931 243.488L288.396 244.374ZM295.818 242.136L295.918 243.131C298.197 242.903 300.239 243.009 302.056 243.43L302.281 242.456L302.507 241.482C300.441 241.003 298.174 240.896 295.719 241.141L295.818 242.136ZM302.281 242.456L302.067 243.433C303.916 243.839 305.383 244.447 306.503 245.229L307.075 244.409L307.648 243.589C306.258 242.619 304.529 241.926 302.496 241.479L302.281 242.456ZM307.075 244.409L306.513 245.236C307.653 246.011 308.26 246.794 308.502 247.553L309.455 247.25L310.407 246.947C309.986 245.622 309.007 244.512 307.637 243.582L307.075 244.409ZM309.455 247.25V248.25H309.881V247.25V246.25H309.455V247.25ZM309.881 247.25H310.881V243.273H309.881H308.881V247.25H309.881ZM309.881 243.273V244.273H317.409V243.273V242.273H309.881V243.273ZM317.409 243.273H316.409V275.375H317.409H318.409V243.273H317.409ZM317.409 275.375H316.409C316.409 277.563 317.026 279.526 318.272 281.223L319.078 280.631L319.884 280.039C318.905 278.706 318.409 277.164 318.409 275.375H317.409ZM319.078 280.631L318.272 281.223C319.6 283.031 321.543 283.903 323.943 283.903V282.903V281.903C322.082 281.903 320.781 281.26 319.884 280.039L319.078 280.631ZM323.943 282.903V283.903C326.614 283.903 328.776 282.971 330.275 281.028L329.483 280.418L328.691 279.807C327.633 281.179 326.102 281.903 323.943 281.903V282.903ZM329.483 280.418L330.269 281.035C331.731 279.175 332.654 276.413 333.137 272.883L332.146 272.747L331.156 272.611C330.692 275.995 329.839 278.346 328.697 279.8L329.483 280.418ZM332.146 272.747L333.136 272.89C333.643 269.368 333.892 264.889 333.892 259.466H332.892H331.892C331.892 264.839 331.644 269.214 331.156 272.605L332.146 272.747ZM332.892 259.466H333.892C333.892 256.2 333.441 252.983 332.54 249.817L331.578 250.091L330.616 250.365C331.467 253.354 331.892 256.387 331.892 259.466H332.892ZM331.578 250.091L332.542 249.826C331.663 246.625 330.318 243.631 328.511 240.846L327.672 241.391L326.833 241.935C328.529 244.548 329.789 247.354 330.614 250.356L331.578 250.091ZM327.672 241.391L328.514 240.851C326.721 238.052 324.453 235.589 321.716 233.463L321.102 234.253L320.489 235.043C323.055 237.036 325.166 239.331 326.83 241.93L327.672 241.391ZM321.102 234.253L321.716 233.463C318.962 231.324 315.743 229.664 312.071 228.472L311.763 229.423L311.454 230.374C314.932 231.503 317.939 233.062 320.489 235.043L321.102 234.253ZM311.763 229.423L312.079 228.475C308.407 227.251 304.261 226.648 299.653 226.648V227.648V228.648C304.089 228.648 308.016 229.228 311.447 230.372L311.763 229.423ZM299.653 227.648V226.648C293.987 226.648 288.876 227.528 284.338 229.309L284.703 230.24L285.068 231.171C289.337 229.496 294.193 228.648 299.653 228.648V227.648ZM284.703 230.24L284.34 229.308C279.827 231.065 275.971 233.645 272.787 237.05L273.517 237.733L274.247 238.416C277.218 235.239 280.82 232.825 285.066 231.172L284.703 230.24ZM273.517 237.733L272.787 237.05C269.626 240.431 267.226 244.534 265.576 249.34L266.521 249.665L267.467 249.99C269.036 245.421 271.3 241.569 274.248 238.416L273.517 237.733ZM266.521 249.665L265.575 249.343C263.947 254.129 263.142 259.544 263.142 265.574H264.142H265.142C265.142 259.719 265.924 254.528 267.468 249.987L266.521 249.665ZM264.142 265.574H263.142C263.142 271.697 263.946 277.17 265.574 281.981L266.521 281.661L267.469 281.34C265.924 276.776 265.142 271.525 265.142 265.574H264.142ZM266.521 281.661L265.576 281.985C267.228 286.797 269.668 290.882 272.906 294.218L273.624 293.521L274.341 292.825C271.329 289.721 269.034 285.899 267.467 281.336L266.521 281.661ZM273.624 293.521L272.909 294.22C276.173 297.559 280.201 300.075 284.97 301.778L285.307 300.837L285.643 299.895C281.132 298.284 277.371 295.923 274.339 292.822L273.624 293.521ZM285.307 300.837L284.966 301.777C289.737 303.505 295.207 304.358 301.358 304.358V303.358V302.358C295.388 302.358 290.157 301.53 285.647 299.896L285.307 300.837ZM301.358 303.358V304.358C304.026 304.358 306.659 304.103 309.257 303.593L309.064 302.612L308.871 301.631C306.402 302.116 303.898 302.358 301.358 302.358V303.358ZM309.064 302.612L309.257 303.593C311.815 303.091 314.086 302.539 316.067 301.935L315.776 300.979L315.484 300.022C313.583 300.602 311.38 301.139 308.871 301.631L309.064 302.612ZM315.776 300.979L316.067 301.935C318.009 301.343 319.417 300.902 320.282 300.613L319.966 299.665L319.65 298.716C318.811 298.996 317.425 299.431 315.484 300.022L315.776 300.979ZM319.966 299.665L319.009 299.956L320.998 306.49L321.955 306.199L322.911 305.908L320.923 299.374L319.966 299.665ZM321.955 306.199L321.568 305.277C320.161 305.867 318.293 306.468 315.95 307.078L316.202 308.045L316.453 309.013C318.845 308.391 320.813 307.762 322.341 307.121L321.955 306.199ZM316.202 308.045L315.948 307.078C313.642 307.684 311.168 308.186 308.525 308.584L308.673 309.572L308.822 310.561C311.529 310.154 314.074 309.638 316.456 309.013L316.202 308.045ZM308.673 309.572L308.523 308.584C305.916 308.98 303.433 309.176 301.074 309.176V310.176V311.176C303.544 311.176 306.128 310.97 308.823 310.561L308.673 309.572ZM296.955 281.909V282.909C300.254 282.909 303.031 282.245 305.206 280.83L304.661 279.991L304.115 279.153C302.36 280.295 300 280.909 296.955 280.909V281.909ZM304.661 279.991L305.206 280.83C307.386 279.411 308.942 277.286 309.902 274.532L308.957 274.203L308.013 273.874C307.174 276.281 305.865 278.015 304.115 279.153L304.661 279.991ZM308.957 274.203L309.902 274.532C310.85 271.811 311.307 268.435 311.307 264.438H310.307H309.307C309.307 268.3 308.864 271.435 308.013 273.874L308.957 274.203ZM310.307 264.438H311.307C311.307 260.398 310.805 257.135 309.728 254.726L308.815 255.134L307.902 255.541C308.814 257.582 309.307 260.523 309.307 264.438H310.307ZM308.815 255.134L309.728 254.726C308.65 252.312 307.023 250.554 304.832 249.539L304.412 250.446L303.991 251.353C305.683 252.137 306.992 253.504 307.902 255.541L308.815 255.134ZM304.412 250.446L304.832 249.539C302.724 248.561 300.179 248.097 297.239 248.097V249.097V250.097C299.98 250.097 302.218 250.531 303.991 251.353L304.412 250.446ZM297.239 249.097V248.097C294.355 248.097 291.831 248.859 289.719 250.424L290.314 251.227L290.909 252.031C292.632 250.754 294.725 250.097 297.239 250.097V249.097ZM290.314 251.227L289.72 250.422C287.673 251.933 286.111 253.949 285.029 256.44L285.946 256.838L286.863 257.236C287.817 255.04 289.167 253.315 290.907 252.032L290.314 251.227ZM285.946 256.838L285.027 256.444C283.975 258.899 283.455 261.568 283.455 264.438H284.455H285.455C285.455 261.815 285.929 259.417 286.865 257.232L285.946 256.838ZM284.455 264.438H283.455C283.455 267.557 283.869 270.508 284.704 273.284L285.662 272.996L286.62 272.708C285.845 270.133 285.455 267.378 285.455 264.438H284.455ZM285.662 272.996L284.705 273.286C285.556 276.088 286.958 278.406 288.931 280.199L289.604 279.459L290.276 278.719C288.603 277.198 287.378 275.206 286.619 272.705L285.662 272.996ZM289.604 279.459L288.936 280.204C290.986 282.041 293.696 282.909 296.955 282.909V281.909V280.909C294.057 280.909 291.867 280.144 290.271 278.714L289.604 279.459Z" fill="white" mask="url(#path-8-outside-1_1_2)"/>
<path d="M281.862 307.193L282.199 306.252L282.195 306.25L281.862 307.193ZM267.835 298.493L268.547 297.79V297.79L267.835 298.493ZM259.241 284.395L258.297 284.724V284.724L259.241 284.395ZM259.277 246.682L258.337 246.34L258.336 246.344L259.277 246.682ZM267.906 232.761L267.195 232.059L267.195 232.059L267.906 232.761ZM281.685 223.99L281.337 223.053L281.335 223.053L281.685 223.99ZM317.551 224.239L317.151 225.155L317.157 225.158L317.551 224.239ZM330.122 233.01L329.383 233.683L329.387 233.688L330.122 233.01ZM337.722 245.403L336.783 245.747L336.784 245.751L337.722 245.403ZM339.781 270.048L338.786 269.955V269.955L339.781 270.048ZM337.686 279.778L338.626 280.12L338.627 280.117L337.686 279.778ZM332.75 286.881L332.121 286.103L332.117 286.106L332.75 286.881ZM318.332 288.798L318.586 287.831V287.831L318.332 288.798ZM313.041 286.206L312.424 286.993L313.041 286.206ZM310.307 281.341L311.297 281.203L311.177 280.341H310.307V281.341ZM309.881 281.341V280.341H309.212L308.957 280.959L309.881 281.341ZM307.253 285.247L306.532 284.554L306.525 284.561L307.253 285.247ZM302.672 288.195L302.311 287.262L302.307 287.264L302.672 288.195ZM295.818 289.153L295.78 290.153L295.783 290.153L295.818 289.153ZM287.686 287.094L287.207 287.972L287.214 287.975L287.686 287.094ZM281.791 281.909L280.976 282.488L280.983 282.498L281.791 281.909ZM278.24 274.274L277.274 274.533L277.277 274.543L278.24 274.274ZM278.489 256.092L279.43 256.429V256.429L278.489 256.092ZM282.43 249.132L281.671 248.481L281.667 248.487L282.43 249.132ZM288.396 244.374L288.858 245.26L288.862 245.259L288.396 244.374ZM295.818 242.136L295.719 241.141L295.712 241.142L295.818 242.136ZM302.281 242.456L302.056 243.43L302.067 243.433L302.281 242.456ZM307.075 244.409L306.503 245.229L306.513 245.236L307.075 244.409ZM309.455 247.25L308.502 247.553L308.723 248.25H309.455V247.25ZM309.881 247.25V248.25H310.881V247.25H309.881ZM309.881 243.273V242.273H308.881V243.273H309.881ZM317.409 243.273H318.409V242.273H317.409V243.273ZM319.078 280.631L318.272 281.223V281.223L319.078 280.631ZM329.483 280.418L328.697 279.8L328.691 279.807L329.483 280.418ZM332.146 272.747L331.156 272.605L331.156 272.611L332.146 272.747ZM331.578 250.091L330.614 250.356L330.616 250.365L331.578 250.091ZM327.672 241.391L326.83 241.93L326.833 241.935L327.672 241.391ZM311.763 229.423L311.447 230.372L311.454 230.374L311.763 229.423ZM284.703 230.24L285.066 231.172L285.068 231.171L284.703 230.24ZM273.517 237.733L272.787 237.05L272.787 237.05L273.517 237.733ZM266.521 249.665L265.576 249.34L265.575 249.343L266.521 249.665ZM266.521 281.661L265.574 281.981L265.576 281.985L266.521 281.661ZM273.624 293.521L272.906 294.218L272.909 294.22L273.624 293.521ZM285.307 300.837L285.647 299.896L285.643 299.895L285.307 300.837ZM309.064 302.612L309.257 303.593V303.593L309.064 302.612ZM315.776 300.979L316.067 301.935V301.935L315.776 300.979ZM319.966 299.665L320.923 299.374L320.624 298.391L319.65 298.716L319.966 299.665ZM321.955 306.199L322.341 307.121L323.174 306.772L322.911 305.908L321.955 306.199ZM316.202 308.045L315.95 307.078L315.948 307.078L316.202 308.045ZM308.673 309.572L308.525 308.584L308.523 308.584L308.673 309.572ZM308.957 274.203L309.902 274.532V274.532L308.957 274.203ZM308.815 255.134L309.728 254.726V254.726L308.815 255.134ZM290.314 251.227L290.907 252.032L290.909 252.031L290.314 251.227ZM285.946 256.838L285.029 256.44L285.027 256.444L285.946 256.838ZM285.662 272.996L284.704 273.284L284.705 273.286L285.662 272.996ZM289.604 279.459L288.931 280.199L288.936 280.204L289.604 279.459ZM301.074 310.176V309.176C293.919 309.176 287.633 308.194 282.199 306.252L281.862 307.193L281.526 308.135C287.218 310.17 293.74 311.176 301.074 311.176V310.176ZM281.862 307.193L282.195 306.25C276.761 304.331 272.218 301.508 268.547 297.79L267.835 298.493L267.124 299.196C271.028 303.148 275.837 306.126 281.529 308.136L281.862 307.193ZM267.835 298.493L268.547 297.79C264.873 294.07 262.083 289.502 260.186 284.065L259.241 284.395L258.297 284.724C260.283 290.415 263.222 295.245 267.124 299.196L267.835 298.493ZM259.241 284.395L260.186 284.065C258.288 278.628 257.33 272.374 257.33 265.29H256.33H255.33C255.33 272.552 256.312 279.035 258.297 284.724L259.241 284.395ZM256.33 265.29H257.33C257.33 258.447 258.299 252.362 260.218 247.02L259.277 246.682L258.336 246.344C256.325 251.94 255.33 258.26 255.33 265.29H256.33ZM259.277 246.682L260.217 247.024C262.161 241.678 264.963 237.165 268.618 233.464L267.906 232.761L267.195 232.059C263.321 235.981 260.371 240.748 258.337 246.34L259.277 246.682ZM267.906 232.761L268.618 233.464C272.296 229.739 276.763 226.892 282.034 224.927L281.685 223.99L281.335 223.053C275.811 225.113 271.092 228.113 267.195 232.059L267.906 232.761ZM281.685 223.99L282.033 224.928C287.324 222.963 293.335 221.972 300.08 221.972V220.972V219.972C293.14 219.972 286.888 220.992 281.337 223.053L281.685 223.99ZM300.08 220.972V221.972C306.624 221.972 312.307 223.043 317.151 225.155L317.551 224.239L317.951 223.322C312.805 221.078 306.84 219.972 300.08 219.972V220.972ZM317.551 224.239L317.157 225.158C322.057 227.261 326.126 230.105 329.383 233.683L330.122 233.01L330.862 232.337C327.395 228.528 323.083 225.525 317.946 223.32L317.551 224.239ZM330.122 233.01L329.387 233.688C332.685 237.263 335.148 241.281 336.783 245.747L337.722 245.403L338.661 245.06C336.934 240.34 334.33 236.096 330.857 232.332L330.122 233.01ZM337.722 245.403L336.784 245.751C338.447 250.233 339.278 254.85 339.278 259.608H340.278H341.278C341.278 254.612 340.405 249.759 338.659 245.055L337.722 245.403ZM340.278 259.608H339.278C339.278 263.008 339.114 266.457 338.786 269.955L339.781 270.048L340.777 270.142C341.111 266.584 341.278 263.073 341.278 259.608H340.278ZM339.781 270.048L338.786 269.955C338.461 273.409 337.779 276.569 336.745 279.44L337.686 279.778L338.627 280.117C339.724 277.07 340.439 273.743 340.777 270.142L339.781 270.048ZM337.686 279.778L336.746 279.437C335.737 282.218 334.192 284.429 332.121 286.103L332.75 286.881L333.379 287.658C335.758 285.734 337.505 283.21 338.626 280.12L337.686 279.778ZM332.75 286.881L332.117 286.106C330.145 287.718 327.41 288.58 323.801 288.58V289.58V290.58C327.721 290.58 330.952 289.642 333.383 287.655L332.75 286.881ZM323.801 289.58V288.58C322.247 288.58 320.511 288.335 318.586 287.831L318.332 288.798L318.079 289.766C320.131 290.303 322.041 290.58 323.801 290.58V289.58ZM318.332 288.798L318.586 287.831C316.723 287.343 315.084 286.538 313.658 285.419L313.041 286.206L312.424 286.993C314.076 288.289 315.965 289.212 318.079 289.766L318.332 288.798ZM313.041 286.206L313.658 285.419C312.334 284.38 311.548 282.997 311.297 281.203L310.307 281.341L309.316 281.479C309.634 283.757 310.67 285.617 312.424 286.993L313.041 286.206ZM310.307 281.341V280.341H309.881V281.341V282.341H310.307V281.341ZM309.881 281.341L308.957 280.959C308.443 282.2 307.642 283.4 306.532 284.554L307.253 285.247L307.974 285.94C309.231 284.632 310.182 283.228 310.805 281.723L309.881 281.341ZM307.253 285.247L306.525 284.561C305.486 285.664 304.093 286.571 302.311 287.262L302.672 288.195L303.033 289.127C305.039 288.35 306.7 287.292 307.981 285.933L307.253 285.247ZM302.672 288.195L302.307 287.264C300.599 287.934 298.46 288.245 295.853 288.154L295.818 289.153L295.783 290.153C298.574 290.251 301.004 289.923 303.037 289.125L302.672 288.195ZM295.818 289.153L295.857 288.154C292.907 288.041 290.348 287.385 288.158 286.212L287.686 287.094L287.214 287.975C289.711 289.312 292.575 290.029 295.78 290.153L295.818 289.153ZM287.686 287.094L288.165 286.216C285.952 285.009 284.099 283.38 282.6 281.32L281.791 281.909L280.983 282.498C282.655 284.794 284.732 286.622 287.207 287.972L287.686 287.094ZM281.791 281.909L282.607 281.33C281.118 279.233 279.981 276.795 279.203 274.006L278.24 274.274L277.277 274.543C278.109 277.53 279.339 280.182 280.976 282.488L281.791 281.909ZM278.24 274.274L279.206 274.015C278.45 271.197 278.068 268.148 278.068 264.864H277.068H276.068C276.068 268.303 276.468 271.528 277.274 274.533L278.24 274.274ZM277.068 264.864H278.068C278.068 261.767 278.527 258.959 279.43 256.429L278.489 256.092L277.547 255.756C276.557 258.529 276.068 261.568 276.068 264.864H277.068ZM278.489 256.092L279.43 256.429C280.34 253.881 281.597 251.668 283.194 249.778L282.43 249.132L281.667 248.487C279.902 250.574 278.531 253.001 277.547 255.756L278.489 256.092ZM282.43 249.132L283.19 249.783C284.813 247.889 286.701 246.384 288.858 245.26L288.396 244.374L287.934 243.487C285.546 244.731 283.457 246.398 281.671 248.481L282.43 249.132ZM288.396 244.374L288.862 245.259C291.043 244.112 293.395 243.402 295.925 243.131L295.818 242.136L295.712 241.142C292.938 241.439 290.342 242.221 287.931 243.488L288.396 244.374ZM295.818 242.136L295.918 243.131C298.197 242.903 300.239 243.009 302.056 243.43L302.281 242.456L302.507 241.482C300.441 241.003 298.174 240.896 295.719 241.141L295.818 242.136ZM302.281 242.456L302.067 243.433C303.916 243.839 305.383 244.447 306.503 245.229L307.075 244.409L307.648 243.589C306.258 242.619 304.529 241.926 302.496 241.479L302.281 242.456ZM307.075 244.409L306.513 245.236C307.653 246.011 308.26 246.794 308.502 247.553L309.455 247.25L310.407 246.947C309.986 245.622 309.007 244.512 307.637 243.582L307.075 244.409ZM309.455 247.25V248.25H309.881V247.25V246.25H309.455V247.25ZM309.881 247.25H310.881V243.273H309.881H308.881V247.25H309.881ZM309.881 243.273V244.273H317.409V243.273V242.273H309.881V243.273ZM317.409 243.273H316.409V275.375H317.409H318.409V243.273H317.409ZM317.409 275.375H316.409C316.409 277.563 317.026 279.526 318.272 281.223L319.078 280.631L319.884 280.039C318.905 278.706 318.409 277.164 318.409 275.375H317.409ZM319.078 280.631L318.272 281.223C319.6 283.031 321.543 283.903 323.943 283.903V282.903V281.903C322.082 281.903 320.781 281.26 319.884 280.039L319.078 280.631ZM323.943 282.903V283.903C326.614 283.903 328.776 282.971 330.275 281.028L329.483 280.418L328.691 279.807C327.633 281.179 326.102 281.903 323.943 281.903V282.903ZM329.483 280.418L330.269 281.035C331.731 279.175 332.654 276.413 333.137 272.883L332.146 272.747L331.156 272.611C330.692 275.995 329.839 278.346 328.697 279.8L329.483 280.418ZM332.146 272.747L333.136 272.89C333.643 269.368 333.892 264.889 333.892 259.466H332.892H331.892C331.892 264.839 331.644 269.214 331.156 272.605L332.146 272.747ZM332.892 259.466H333.892C333.892 256.2 333.441 252.983 332.54 249.817L331.578 250.091L330.616 250.365C331.467 253.354 331.892 256.387 331.892 259.466H332.892ZM331.578 250.091L332.542 249.826C331.663 246.625 330.318 243.631 328.511 240.846L327.672 241.391L326.833 241.935C328.529 244.548 329.789 247.354 330.614 250.356L331.578 250.091ZM327.672 241.391L328.514 240.851C326.721 238.052 324.453 235.589 321.716 233.463L321.102 234.253L320.489 235.043C323.055 237.036 325.166 239.331 326.83 241.93L327.672 241.391ZM321.102 234.253L321.716 233.463C318.962 231.324 315.743 229.664 312.071 228.472L311.763 229.423L311.454 230.374C314.932 231.503 317.939 233.062 320.489 235.043L321.102 234.253ZM311.763 229.423L312.079 228.475C308.407 227.251 304.261 226.648 299.653 226.648V227.648V228.648C304.089 228.648 308.016 229.228 311.447 230.372L311.763 229.423ZM299.653 227.648V226.648C293.987 226.648 288.876 227.528 284.338 229.309L284.703 230.24L285.068 231.171C289.337 229.496 294.193 228.648 299.653 228.648V227.648ZM284.703 230.24L284.34 229.308C279.827 231.065 275.971 233.645 272.787 237.05L273.517 237.733L274.247 238.416C277.218 235.239 280.82 232.825 285.066 231.172L284.703 230.24ZM273.517 237.733L272.787 237.05C269.626 240.431 267.226 244.534 265.576 249.34L266.521 249.665L267.467 249.99C269.036 245.421 271.3 241.569 274.248 238.416L273.517 237.733ZM266.521 249.665L265.575 249.343C263.947 254.129 263.142 259.544 263.142 265.574H264.142H265.142C265.142 259.719 265.924 254.528 267.468 249.987L266.521 249.665ZM264.142 265.574H263.142C263.142 271.697 263.946 277.17 265.574 281.981L266.521 281.661L267.469 281.34C265.924 276.776 265.142 271.525 265.142 265.574H264.142ZM266.521 281.661L265.576 281.985C267.228 286.797 269.668 290.882 272.906 294.218L273.624 293.521L274.341 292.825C271.329 289.721 269.034 285.899 267.467 281.336L266.521 281.661ZM273.624 293.521L272.909 294.22C276.173 297.559 280.201 300.075 284.97 301.778L285.307 300.837L285.643 299.895C281.132 298.284 277.371 295.923 274.339 292.822L273.624 293.521ZM285.307 300.837L284.966 301.777C289.737 303.505 295.207 304.358 301.358 304.358V303.358V302.358C295.388 302.358 290.157 301.53 285.647 299.896L285.307 300.837ZM301.358 303.358V304.358C304.026 304.358 306.659 304.103 309.257 303.593L309.064 302.612L308.871 301.631C306.402 302.116 303.898 302.358 301.358 302.358V303.358ZM309.064 302.612L309.257 303.593C311.815 303.091 314.086 302.539 316.067 301.935L315.776 300.979L315.484 300.022C313.583 300.602 311.38 301.139 308.871 301.631L309.064 302.612ZM315.776 300.979L316.067 301.935C318.009 301.343 319.417 300.902 320.282 300.613L319.966 299.665L319.65 298.716C318.811 298.996 317.425 299.431 315.484 300.022L315.776 300.979ZM319.966 299.665L319.009 299.956L320.998 306.49L321.955 306.199L322.911 305.908L320.923 299.374L319.966 299.665ZM321.955 306.199L321.568 305.277C320.161 305.867 318.293 306.468 315.95 307.078L316.202 308.045L316.453 309.013C318.845 308.391 320.813 307.762 322.341 307.121L321.955 306.199ZM316.202 308.045L315.948 307.078C313.642 307.684 311.168 308.186 308.525 308.584L308.673 309.572L308.822 310.561C311.529 310.154 314.074 309.638 316.456 309.013L316.202 308.045ZM308.673 309.572L308.523 308.584C305.916 308.98 303.433 309.176 301.074 309.176V310.176V311.176C303.544 311.176 306.128 310.97 308.823 310.561L308.673 309.572ZM296.955 281.909V282.909C300.254 282.909 303.031 282.245 305.206 280.83L304.661 279.991L304.115 279.153C302.36 280.295 300 280.909 296.955 280.909V281.909ZM304.661 279.991L305.206 280.83C307.386 279.411 308.942 277.286 309.902 274.532L308.957 274.203L308.013 273.874C307.174 276.281 305.865 278.015 304.115 279.153L304.661 279.991ZM308.957 274.203L309.902 274.532C310.85 271.811 311.307 268.435 311.307 264.438H310.307H309.307C309.307 268.3 308.864 271.435 308.013 273.874L308.957 274.203ZM310.307 264.438H311.307C311.307 260.398 310.805 257.135 309.728 254.726L308.815 255.134L307.902 255.541C308.814 257.582 309.307 260.523 309.307 264.438H310.307ZM308.815 255.134L309.728 254.726C308.65 252.312 307.023 250.554 304.832 249.539L304.412 250.446L303.991 251.353C305.683 252.137 306.992 253.504 307.902 255.541L308.815 255.134ZM304.412 250.446L304.832 249.539C302.724 248.561 300.179 248.097 297.239 248.097V249.097V250.097C299.98 250.097 302.218 250.531 303.991 251.353L304.412 250.446ZM297.239 249.097V248.097C294.355 248.097 291.831 248.859 289.719 250.424L290.314 251.227L290.909 252.031C292.632 250.754 294.725 250.097 297.239 250.097V249.097ZM290.314 251.227L289.72 250.422C287.673 251.933 286.111 253.949 285.029 256.44L285.946 256.838L286.863 257.236C287.817 255.04 289.167 253.315 290.907 252.032L290.314 251.227ZM285.946 256.838L285.027 256.444C283.975 258.899 283.455 261.568 283.455 264.438H284.455H285.455C285.455 261.815 285.929 259.417 286.865 257.232L285.946 256.838ZM284.455 264.438H283.455C283.455 267.557 283.869 270.508 284.704 273.284L285.662 272.996L286.62 272.708C285.845 270.133 285.455 267.378 285.455 264.438H284.455ZM285.662 272.996L284.705 273.286C285.556 276.088 286.958 278.406 288.931 280.199L289.604 279.459L290.276 278.719C288.603 277.198 287.378 275.206 286.619 272.705L285.662 272.996ZM289.604 279.459L288.936 280.204C290.986 282.041 293.696 282.909 296.955 282.909V281.909V280.909C294.057 280.909 291.867 280.144 290.271 278.714L289.604 279.459Z" fill="white" mask="url(#path-8-outside-1_1_2)"/>
<defs>
<filter id="filter0_d_1_2" x="0" y="0" width="428" height="428" filterUnits="userSpaceOnUse" color-interpolation-filters="sRGB">
<feFlood flood-opacity="0" result="BackgroundImageFix"/>
<feColorMatrix in="SourceAlpha" type="matrix" values="0 0 0 0 0 0 0 0 0 0 0 0 0 0 0 0 0 0 127 0" result="hardAlpha"/>
<feOffset dy="4"/>
<feGaussianBlur stdDeviation="2"/>
<feComposite in2="hardAlpha" operator="out"/>
<feColorMatrix type="matrix" values="0 0 0 0 0 0 0 0 0 0 0 0 0 0 0 0 0 0 0.25 0"/>
<feBlend mode="normal" in2="BackgroundImageFix" result="effect1_dropShadow_1_2"/>
<feBlend mode="normal" in="SourceGraphic" in2="effect1_dropShadow_1_2" result="shape"/>
</filter>
<filter id="filter1_g_1_2" x="44.5104" y="83.7254" width="328.902" height="256.476" filterUnits="userSpaceOnUse" color-interpolation-filters="sRGB">
<feFlood flood-opacity="0" result="BackgroundImageFix"/>
<feBlend mode="normal" in="SourceGraphic" in2="BackgroundImageFix" result="shape"/>
<feTurbulence type="fractalNoise" baseFrequency="0.2222222238779068 0.2222222238779068" numOctaves="3" seed="8919" />
<feDisplacementMap in="shape" scale="24.399999618530273" xChannelSelector="R" yChannelSelector="G" result="displacedImage" width="100%" height="100%" />
<feMerge result="effect1_texture_1_2">
<feMergeNode in="displacedImage"/>
</feMerge>
</filter>
</defs>
</svg>
